<svg width="107" height="24" viewBox="0 0 107 24" fill="none" xmlns="http://www.w3.org/2000/svg">
<path d="M8.67115 24C7.79049 24 6.92111 23.9218 6.06303 23.7654C5.22753 23.6089 4.4259 23.3966 3.65814 23.1285C2.91296 22.8603 2.22424 22.5363 1.59197 22.1564C0.959698 21.7765 0.429041 21.352 0 20.8827L0.846792 19.4078C1.65971 20.2346 2.76619 20.9274 4.16622 21.486C5.56625 22.0447 7.06789 22.324 8.67115 22.324C9.82279 22.324 10.8164 22.2123 11.6519 21.9888C12.5099 21.743 13.21 21.419 13.7519 21.0168C14.2938 20.6145 14.689 20.1453 14.9374 19.6089C15.2084 19.0726 15.3439 18.4916 15.3439 17.8659C15.3439 17.0168 15.1293 16.324 14.7003 15.7877C14.2938 15.2291 13.7406 14.771 13.0406 14.4134C12.3406 14.0559 11.5502 13.7654 10.6696 13.5419C9.78891 13.2961 8.88567 13.0615 7.95984 12.838C7.0566 12.6145 6.16464 12.3687 5.28398 12.1006C4.40332 11.8101 3.61298 11.4302 2.91296 10.9609C2.21295 10.4916 1.64842 9.89944 1.21938 9.18436C0.81292 8.46927 0.60969 7.56425 0.60969 6.46927C0.60969 5.64246 0.779049 4.84916 1.11777 4.08938C1.45648 3.32961 1.96456 2.67039 2.64199 2.11173C3.34201 1.53073 4.22267 1.07263 5.28398 0.737431C6.36787 0.379888 7.64371 0.201117 9.11148 0.201117C10.4438 0.201117 11.7422 0.391061 13.0067 0.77095C14.2938 1.12849 15.4003 1.64246 16.3261 2.31285L15.6148 3.85475C14.5987 3.18436 13.5261 2.69274 12.397 2.37989C11.2906 2.04469 10.1954 1.87709 9.11148 1.87709C7.98243 1.87709 7.00015 2 6.16464 2.24581C5.35172 2.46927 4.67429 2.7933 4.13234 3.21788C3.61298 3.62011 3.21781 4.10056 2.94684 4.65922C2.69844 5.21788 2.57425 5.81006 2.57425 6.43575C2.57425 7.28492 2.77748 7.98883 3.18394 8.54749C3.61298 9.0838 4.17751 9.53073 4.87752 9.88827C5.57754 10.2458 6.36787 10.5475 7.24854 10.7933C8.1292 11.0168 9.02116 11.2402 9.9244 11.4637C10.8502 11.6872 11.7535 11.9441 12.6341 12.2346C13.5148 12.5251 14.3051 12.905 15.0052 13.3743C15.7052 13.8212 16.2584 14.4022 16.6649 15.1173C17.0939 15.8101 17.3084 16.6927 17.3084 17.7654C17.3084 18.5922 17.1391 19.3855 16.8004 20.1453C16.4616 20.905 15.931 21.5754 15.2084 22.1564C14.5084 22.7151 13.6164 23.162 12.5325 23.4972C11.4486 23.8324 10.1615 24 8.67115 24Z" fill="white"/>
<path d="M23.0777 11.0615H39.0313V12.771H23.0777V11.0615ZM23.0777 0H39.0313V1.7095H23.0777V0ZM23.0777 23.8324H39.0313V22.1229H23.0777V23.8324Z" fill="white"/>
<path d="M45.736 0.368714H54.3394C55.8298 0.368714 57.1621 0.547486 58.3363 0.905028C59.5331 1.26257 60.5379 1.78771 61.3509 2.48045C62.1864 3.15084 62.8186 3.97765 63.2477 4.96089C63.6993 5.94413 63.9251 7.06145 63.9251 8.31285C63.9251 9.5419 63.6993 10.648 63.2477 11.6313C62.8186 12.6145 62.1864 13.4525 61.3509 14.1453C60.5379 14.8156 59.5331 15.3296 58.3363 15.6872C57.1621 16.0447 55.8298 16.2235 54.3394 16.2235H47.6667V23.8324H45.736V14.514H54.3394C56.8234 14.514 58.7089 13.9777 59.996 12.905C61.3057 11.8101 61.9606 10.2793 61.9606 8.31285C61.9606 6.32402 61.3057 4.7933 59.996 3.72067C58.7089 2.6257 56.8234 2.07821 54.3394 2.07821H45.736V0.368714Z" fill="white"/>
<path d="M73.3962 23.8324V2.07821H64.9283V0.368714H83.8287V2.07821H75.3608V23.8324H73.3962Z" fill="white"/>
<path d="M84.9888 23.8324H82.9226L93.8293 0.368714H95.76L106.667 23.8324H104.567L94.7777 2.44693L84.9888 23.8324Z" fill="white"/>
</svg>
